<?xml version="1.0" encoding="UTF-8"?>
<svg width="195px" height="343px" viewBox="0 0 195 343" version="1.1" xmlns="http://www.w3.org/2000/svg" xmlns:xlink="http://www.w3.org/1999/xlink">
    <!-- Generator: Sketch 52.5 (67469) - http://www.bohemiancoding.com/sketch -->
    <title>Group</title>
    <desc>Created with Sketch.</desc>
    <g id="Page-1" stroke="none" stroke-width="1" fill="none" fill-rule="evenodd" stroke-linecap="round" stroke-linejoin="round">
        <g id="Group" transform="translate(1.000000, 1.000000)" stroke="#000000" stroke-width="2">
            <path d="M148.195,322.833 C160.8,322.733 170.912,309.242 170.781,292.698 C170.65,276.155 160.325,262.825 147.72,262.926 C135.116,263.026 125.004,276.518 125.136,293.061 C125.267,309.603 135.591,322.933 148.195,322.833" id="Path"></path>
            <path d="M45.449,323.24 C58.053,323.24 68.272,309.829 68.272,293.285 C68.272,276.742 58.054,263.33 45.449,263.33 C32.844,263.33 22.626,276.742 22.626,293.285 C22.626,309.829 32.845,323.24 45.449,323.24" id="Path"></path>
            <path d="M152.045,190.141 C164.649,190.041 174.761,176.549 174.63,160.006 C174.499,143.463 164.175,130.133 151.569,130.233 C138.965,130.332 128.854,143.825 128.985,160.367 C129.117,176.911 139.441,190.24 152.045,190.141" id="Path"></path>
            <path d="M40.547,190.582 C53.152,190.582 63.37,177.171 63.37,160.628 C63.37,144.084 53.152,130.672 40.547,130.672 C27.943,130.672 17.724,144.083 17.724,160.628 C17.724,177.171 27.943,190.582 40.547,190.582" id="Path"></path>
            <path d="M121.023,66.685 C121.023,72.553 125.781,77.31 131.648,77.31 C137.515,77.31 142.273,72.553 142.273,66.685 C142.273,60.817 137.515,56.061 131.648,56.061 C125.781,56.061 121.023,60.817 121.023,66.685 Z" id="Path"></path>
            <path d="M121.925,99.624 C121.884,89.159 110.215,80.722 95.862,80.778 C81.508,80.835 69.906,89.364 69.948,99.83 C69.989,110.295 81.658,118.732 96.011,118.676 C110.365,118.618 121.966,110.088 121.925,99.624" id="Path"></path>
            <path d="M49.341,66.969 C49.341,72.837 54.098,77.594 59.966,77.594 C65.834,77.594 70.59,72.837 70.59,66.969 C70.59,61.101 65.834,56.345 59.966,56.345 C54.098,56.345 49.341,61.102 49.341,66.969 Z" id="Path"></path>
            <path d="M96.8,317.535 L91.605,318.157 L85.417,319.98 L78.647,322.866 L71.776,326.562 L65.16,330.687 L58.899,334.719 L52.854,338.057 L46.784,340.106 L40.486,340.377 L33.928,338.576 L27.305,334.631 L20.975,328.668 L15.384,320.955 L10.991,311.855 L8.189,301.779 L7.236,291.15 L8.199,280.362 L10.892,269.762 L14.817,259.613 L19.106,250.066 L22.578,241.132 L24.344,232.695 L24.112,224.556 L22.038,216.492 L18.575,208.299 L14.317,199.851 L9.873,191.125 L5.801,182.188 L2.582,173.165 L0.583,164.2 L0.025,155.429 L0.947,146.941 L3.21,138.769 L6.525,130.9 L10.494,123.297 L14.66,115.916 L18.543,108.73 L21.696,101.729 L23.741,94.909 L24.438,88.24 L23.737,81.646 L21.816,74.979 L19.075,68.044 L16.053,60.658 L13.35,52.716 L11.542,44.253 L11.109,35.496 L12.393,26.831 L15.582,18.73 L20.678,11.686 L27.492,6.125 L35.622,2.354 L44.518,0.509 L53.581,0.552 L62.272,2.253 L70.22,5.18 L77.321,8.695 L83.729,12.027 L89.73,14.414 L95.603,15.283 L101.468,14.367 L107.451,11.933 L113.832,8.552 L120.904,4.979 L128.83,1.989 L137.506,0.22 L146.568,0.105 L155.478,1.879 L163.638,5.586 L170.496,11.091 L175.648,18.096 L178.9,26.171 L180.253,34.826 L179.89,43.586 L178.148,52.062 L175.507,60.025 L172.544,67.435 L169.859,74.392 L167.992,81.074 L167.343,87.673 L168.093,94.336 L170.191,101.141 L173.398,108.116 L177.341,115.271 L181.564,122.618 L185.593,130.19 L188.97,138.033 L191.298,146.187 L192.289,154.667 L191.798,163.442 L189.871,172.422 L186.724,181.471 L182.724,190.439 L178.349,199.201 L174.158,207.683 L170.761,215.903 L168.75,223.984 L168.582,232.125 L170.416,240.546 L173.957,249.453 L178.322,258.965 L182.328,269.083 L185.105,279.661 L186.154,290.44 L185.285,301.078 L182.562,311.175 L178.242,320.309 L172.712,328.066 L166.429,334.08 L159.837,338.076 L153.294,339.931 L146.994,339.708 L140.908,337.708 L134.837,334.417 L128.544,330.436 L121.896,326.364 L114.995,322.722 L108.203,319.889 L102,318.116 L96.8,317.535 Z" id="Path-2"></path>
        </g>
    </g>
</svg>